# xmcd
#
# Track frame offsets:
#	150
#	27823
#	50226
#	53024
#	70397
#	90003
#	106703
#	125675
#	144703
#	155155
#	174922
#	197308
#	214085
#	232032
#	254697
#	275948
#
# Disc length: 3946 seconds
#
# Revision: 0
# Processed by: cddbd v1.4b42PL1 Copyright (c) Steve Scherf et al.
# Submitted via: audiograbber 1.80
#
DISCID=ea0f6810
DTITLE=Barber Shop Records Presents - Woolf Pak - We Got Next
DYEAR=1900
DGENRE=
TTITLE0=Woolf Pak - Head To Top
TTITLE1=Woolf Pak - We Got Next
TTITLE2=Interlude - JT Quik
TTITLE3=Woolf Pak - Pop It Pop It
TTITLE4=Ice Crew ft Woolf Pak - Documento
TTITLE5=Woolf Pak ft Luni Coleone - Woolf Pak
TTITLE6=Sleepy Mario - Boss Outlaw
TTITLE7=Bishop - Hes The Man
TTITLE8=Interlude
TTITLE9=Tamra ft Romeo Ryonell - Coochie Coupon
TTITLE10=Romeo Ryonell and Bishop - U Say It Aint So
TTITLE11=The Greenich ft Romeo Ryonell - Way Too Much
TTITLE12=Bishop - Get Yo Shit Right
TTITLE13=Mr Manson ft Ice Crew - Smash, Kill, Deliver
TTITLE14=Ice Crew - Where The Girls At
TTITLE15=Bishop - Where The Girls At
EXTD=
EXTT0=
EXTT1=
EXTT2=
EXTT3=
EXTT4=
EXTT5=
EXTT6=
EXTT7=
EXTT8=
EXTT9=
EXTT10=
EXTT11=
EXTT12=
EXTT13=
EXTT14=
EXTT15=
PLAYORDER=
